<svg width="53" height="52" viewBox="0 0 53 52" fill="none" xmlns="http://www.w3.org/2000/svg">
<path d="M46.4823 27.4697C46.0147 26.8635 45.5073 26.2571 44.9651 25.653C45.3378 25.2204 45.693 24.787 46.0272 24.3538C49.482 19.8743 50.4629 15.8106 48.7891 12.9117C47.1155 10.0127 43.1063 8.83045 37.499 9.58262C36.9079 9.66195 36.3045 9.76249 35.6915 9.88193C35.4829 9.27205 35.262 8.68126 35.0282 8.11291C32.8761 2.88123 29.8474 0 26.5 0C23.1526 0 20.1239 2.88123 17.9719 8.11291C17.7381 8.68126 17.5172 9.27205 17.3086 9.88193C16.6956 9.76259 16.0921 9.66195 15.5011 9.58262C9.89443 8.83055 5.88475 10.0127 4.211 12.9117C2.53725 15.8107 3.51814 19.8743 6.97289 24.3538C7.30703 24.787 7.66219 25.2204 8.03503 25.653C7.49268 26.2571 6.98538 26.8634 6.51779 27.4697C3.06304 31.9492 2.08215 36.0128 3.7559 38.9117C5.10068 41.241 7.95256 42.4619 11.9301 42.4619C12.9029 42.4619 13.9439 42.3887 15.0459 42.2409C15.7556 42.1456 16.483 42.0201 17.224 41.8672C17.4571 42.5664 17.7062 43.2412 17.9719 43.8872C20.1239 49.1188 23.1526 52 26.5 52C29.8474 52 32.8761 49.1188 35.0281 43.8871C35.2938 43.2411 35.5429 42.5663 35.776 41.8671C36.517 42.02 37.2444 42.1456 37.9541 42.2408C39.0564 42.3886 40.0968 42.4618 41.07 42.4618C45.047 42.4618 47.8995 41.2408 49.2441 38.9116C50.918 36.0127 49.9371 31.9492 46.4823 27.4697V27.4697ZM40.632 12.4034C43.4171 12.4034 45.3855 13.1104 46.1504 14.4351C47.1512 16.1685 46.2269 19.1055 43.6145 22.4929C43.3656 22.8157 43.1034 23.1387 42.8304 23.4615C41.303 22.0084 39.5837 20.5865 37.7131 19.2315C37.4547 16.9751 37.0663 14.8189 36.5582 12.8141C38.0496 12.5389 39.419 12.4034 40.632 12.4034V12.4034ZM30.5447 33.3117C29.1752 34.1024 27.8235 34.8117 26.5009 35.4424C25.1776 34.8115 23.8256 34.1029 22.4553 33.3117C20.9435 32.4389 19.4968 31.515 18.1319 30.5555C18.0173 29.0981 17.9553 27.5774 17.9553 26C17.9553 24.233 18.0328 22.5368 18.1754 20.9217C19.3926 20.0859 20.6711 19.2791 22.0001 18.5118C23.5276 17.6299 25.0324 16.8505 26.4999 16.1673C27.9675 16.8505 29.4723 17.6299 30.9998 18.5118C32.3289 19.2791 33.6073 20.0859 34.8245 20.9217C34.9671 22.5368 35.0446 24.233 35.0446 26C35.0446 27.5774 34.9826 29.0981 34.868 30.5555C33.5032 31.515 32.0565 32.4389 30.5447 33.3117V33.3117ZM34.4033 34.5317C34.1992 35.8286 33.9515 37.0571 33.6672 38.2084C32.5371 37.8801 31.3597 37.4828 30.1453 37.0147C30.7878 36.6735 31.4293 36.3192 32.0682 35.9504C32.8638 35.4909 33.6425 35.0171 34.4033 34.5317ZM22.8545 37.0146C21.6399 37.4828 20.4628 37.8797 19.3326 38.208C19.0484 37.0569 18.8008 35.8285 18.5966 34.5317C19.3574 35.0171 20.1361 35.4909 20.9317 35.9503C21.5706 36.3192 22.212 36.6735 22.8545 37.0146ZM14.9456 28.1271C13.9808 27.3278 13.0768 26.5135 12.2427 25.6916C13.088 24.8855 13.9988 24.0882 14.9677 23.3065C14.9288 24.1956 14.9085 25.0943 14.9085 26C14.9085 26.7139 14.9214 27.4232 14.9456 28.1271ZM18.6809 16.9516C18.8858 15.7376 19.1291 14.5869 19.4048 13.506C20.4874 13.8085 21.6156 14.1758 22.7796 14.6085C22.0099 15.0102 21.2414 15.4317 20.4767 15.8732C19.868 16.2246 19.2695 16.5846 18.6809 16.9516V16.9516ZM30.2203 14.6084C31.3843 14.1757 32.5125 13.8083 33.5952 13.5059C33.8709 14.5869 34.1142 15.7376 34.3191 16.9516C33.7305 16.5846 33.132 16.2246 32.5234 15.8732C31.7585 15.4316 30.9901 15.0101 30.2203 14.6084ZM38.0323 23.3065C39.0012 24.0882 39.912 24.8855 40.7573 25.6916C39.9232 26.5135 39.0192 27.3278 38.0544 28.1271C38.0786 27.4232 38.0915 26.7139 38.0915 26C38.0915 25.0942 38.0712 24.1956 38.0323 23.3065V23.3065ZM26.5 3.04688C28.7038 3.04688 31.0448 5.8503 32.7182 10.5927C30.7021 11.1593 28.6121 11.9105 26.5 12.8289C24.3879 11.9105 22.298 11.1594 20.2818 10.5927C21.9552 5.8503 24.2962 3.04688 26.5 3.04688ZM6.84959 14.4352C7.61456 13.1103 9.58213 12.4035 12.368 12.4035C13.5809 12.4035 14.9504 12.539 16.4419 12.8143C15.9337 14.8191 15.5454 16.9753 15.287 19.2316C13.4164 20.5866 11.6971 22.0085 10.1697 23.4616C9.89667 23.1388 9.63454 22.8158 9.38561 22.493C6.77311 19.1056 5.84879 16.1686 6.84959 14.4352ZM11.9129 39.42C9.12784 39.4198 7.15936 38.713 6.39449 37.3883C5.39369 35.6548 6.31801 32.7179 8.9304 29.3304C9.30263 28.8477 9.70268 28.3645 10.1281 27.8821C11.6383 29.3667 13.3523 30.823 15.2264 32.2136C15.4731 34.5765 15.8604 36.8368 16.3783 38.9347C14.7341 39.2608 13.2315 39.4201 11.9129 39.42V39.42ZM26.5 48.9531C24.2534 48.9531 21.8646 46.0393 20.1856 41.1286C22.2357 40.5327 24.3586 39.7479 26.5 38.794C28.6414 39.7479 30.7643 40.5327 32.8144 41.1286C31.1354 46.0393 28.7466 48.9531 26.5 48.9531ZM46.6055 37.3883C45.4786 39.3403 41.7399 39.9498 36.6216 38.9347C37.1396 36.8368 37.5268 34.5765 37.7735 32.2136C39.6477 30.823 41.3617 29.3667 42.8718 27.8821C43.2972 28.3645 43.6973 28.8478 44.0695 29.3304C46.6821 32.7179 47.6064 35.6548 46.6055 37.3883Z" fill="white"/>
<path d="M26.5 30.7073C29.0998 30.7073 31.2074 28.5997 31.2074 25.9999C31.2074 23.4001 29.0998 21.2925 26.5 21.2925C23.9002 21.2925 21.7926 23.4001 21.7926 25.9999C21.7926 28.5997 23.9002 30.7073 26.5 30.7073Z" fill="white"/>
</svg>
